<svg width="16" height="20" viewBox="0 0 16 20" fill="none" xmlns="http://www.w3.org/2000/svg">
<path fill-rule="evenodd" clip-rule="evenodd" d="M0 1C0 0.447715 0.447715 0 1 0H11C11.5523 0 12 0.447715 12 1V2C12 2.55228 11.5523 3 11 3C10.4477 3 10 2.55228 10 2H2V14C2.55228 14 3 14.4477 3 15C3 15.5523 2.55228 16 2 16H1C0.447715 16 0 15.5523 0 15V1Z" fill="#A4AFBE"/>
<path fill-rule="evenodd" clip-rule="evenodd" d="M4 5C4 4.44772 4.44772 4 5 4H15C15.5523 4 16 4.44772 16 5V19C16 19.5523 15.5523 20 15 20H5C4.44772 20 4 19.5523 4 19V5ZM6 6V18H14V6H6Z" fill="#A4AFBE"/>
</svg>
