<svg width="20" height="20" viewBox="0 0 20 20" fill="none" xmlns="http://www.w3.org/2000/svg">
<path fill-rule="evenodd" clip-rule="evenodd" d="M3 17L3 6H5L5 17L15 17L15 6L17 6V17C17 18.1046 16.1046 19 15 19H5C3.89543 19 3 18.1046 3 17Z" fill="#A4AFBE"/>
<path fill-rule="evenodd" clip-rule="evenodd" d="M1 6C1 5.44772 1.44772 5 2 5L18 5C18.5523 5 19 5.44772 19 6C19 6.55228 18.5523 7 18 7L2 7C1.44772 7 1 6.55228 1 6Z" fill="#A4AFBE"/>
<path fill-rule="evenodd" clip-rule="evenodd" d="M8 8C8.55228 8 9 8.44772 9 9L9 15C9 15.5523 8.55228 16 8 16C7.44772 16 7 15.5523 7 15L7 9C7 8.44772 7.44772 8 8 8Z" fill="#A4AFBE"/>
<path fill-rule="evenodd" clip-rule="evenodd" d="M12 8C12.5523 8 13 8.44772 13 9L13 15C13 15.5523 12.5523 16 12 16C11.4477 16 11 15.5523 11 15L11 9C11 8.44772 11.4477 8 12 8Z" fill="#A4AFBE"/>
<path fill-rule="evenodd" clip-rule="evenodd" d="M5 3C5 1.89543 5.89543 1 7 1L13 1C14.1046 1 15 1.89543 15 3V5H13V3L7 3V5H5L5 3Z" fill="#A4AFBE"/>
</svg>
