<svg width="54" height="54" viewBox="0 0 54 54" fill="none" xmlns="http://www.w3.org/2000/svg">
<rect width="54" height="54" rx="3" fill="#5189DC"/>
<path fill-rule="evenodd" clip-rule="evenodd" d="M19 33C19 32.4477 19.4477 32 20 32H34C34.5523 32 35 32.4477 35 33C35 33.5523 34.5523 34 34 34H20C19.4477 34 19 33.5523 19 33Z" fill="white"/>
<path fill-rule="evenodd" clip-rule="evenodd" d="M27 18C27.5523 18 28 18.4477 28 19L28 30C28 30.5523 27.5523 31 27 31C26.4477 31 26 30.5523 26 30L26 19C26 18.4477 26.4477 18 27 18Z" fill="white"/>
<path fill-rule="evenodd" clip-rule="evenodd" d="M32.7071 24.2929C33.0976 24.6834 33.0976 25.3166 32.7071 25.7071L27.7071 30.7071C27.3166 31.0976 26.6834 31.0976 26.2929 30.7071L21.2929 25.7071C20.9024 25.3166 20.9024 24.6834 21.2929 24.2929C21.6834 23.9024 22.3166 23.9024 22.7071 24.2929L27 28.5858L31.2929 24.2929C31.6834 23.9024 32.3166 23.9024 32.7071 24.2929Z" fill="white"/>
</svg>
