<svg width="25" height="25" viewBox="0 0 25 25" fill="none" xmlns="http://www.w3.org/2000/svg">
<path d="M23.3467 11.7824L12.7817 22.0378C11.4874 23.2942 9.73195 24 7.90155 24C6.07114 24 4.31571 23.2942 3.02142 22.0378C1.72713 20.7814 1 19.0775 1 17.3007C1 15.5239 1.72713 13.8199 3.02142 12.5635L13.5864 2.30812C14.4493 1.47055 15.6196 1 16.8398 1C18.0601 1 19.2304 1.47055 20.0933 2.30812C20.9561 3.1457 21.4409 4.2817 21.4409 5.46621C21.4409 6.65073 20.9561 7.78673 20.0933 8.6243L9.51676 18.8797C9.08533 19.2985 8.50019 19.5338 7.89005 19.5338C7.27992 19.5338 6.69477 19.2985 6.26334 18.8797C5.83191 18.4609 5.58954 17.8929 5.58954 17.3007C5.58954 16.7084 5.83191 16.1404 6.26334 15.7216L16.0236 6.25853" stroke="#FB0732" stroke-width="2" stroke-linecap="round" stroke-linejoin="round"/>
</svg>
