<svg width="16" height="14" viewBox="0 0 16 14" fill="none" xmlns="http://www.w3.org/2000/svg">
<path fill-rule="evenodd" clip-rule="evenodd" d="M1.09722 5.93406C5.38165 3.98877 8.23861 2.70632 9.6681 2.0867C13.7496 0.317573 14.5977 0.010256 15.1504 0.000108198C15.272 -0.0021237 15.5439 0.029276 15.7199 0.178176C15.8686 0.303905 15.9095 0.473746 15.9291 0.59295C15.9487 0.712154 15.9731 0.983705 15.9537 1.19589C15.7325 3.61769 14.7755 9.49478 14.2886 12.2072C14.0826 13.355 13.6769 13.7398 13.2842 13.7775C12.4307 13.8593 11.7826 13.1897 10.956 12.625C9.6625 11.7414 8.93175 11.1913 7.67617 10.329C6.22513 9.33256 7.16578 8.78487 7.99272 7.88979C8.20914 7.65555 11.9696 4.09108 12.0423 3.76772C12.0514 3.72728 12.0599 3.57654 11.974 3.49694C11.888 3.41734 11.7612 3.44456 11.6697 3.46621C11.5399 3.49689 9.47353 4.92024 5.47045 7.73625C4.88391 8.15598 4.35264 8.36049 3.87663 8.34977C3.35188 8.33796 2.34247 8.04057 1.59207 7.78637C0.671678 7.47459 -0.0598314 7.30975 0.00386665 6.78024C0.0370445 6.50444 0.401496 6.22238 1.09722 5.93406Z" fill="#FB0732"/>
</svg>
